<svg width="24" height="25" viewBox="0 0 24 25" fill="none" xmlns="http://www.w3.org/2000/svg">
<g clip-path="url(#clip0_799_57552)">
<path d="M22.713 4.92466C22.4317 4.5871 22.0796 4.31561 21.6815 4.12947C21.2835 3.94334 20.8494 3.84712 20.41 3.84766H4.242L4.2 3.49666C4.11405 2.76707 3.76338 2.09439 3.21449 1.60613C2.6656 1.11788 1.95663 0.847998 1.222 0.847656L1 0.847656C0.734784 0.847656 0.48043 0.953013 0.292893 1.14055C0.105357 1.32809 0 1.58244 0 1.84766C0 2.11287 0.105357 2.36723 0.292893 2.55476C0.48043 2.7423 0.734784 2.84766 1 2.84766H1.222C1.46693 2.84769 1.70334 2.93761 1.88637 3.10037C2.06941 3.26313 2.18634 3.48741 2.215 3.73066L3.591 15.4307C3.73385 16.6474 4.31848 17.7694 5.23391 18.5837C6.14934 19.3979 7.33185 19.8477 8.557 19.8477H19C19.2652 19.8477 19.5196 19.7423 19.7071 19.5548C19.8946 19.3672 20 19.1129 20 18.8477C20 18.5824 19.8946 18.3281 19.7071 18.1405C19.5196 17.953 19.2652 17.8477 19 17.8477H8.557C7.93806 17.8459 7.3348 17.6528 6.82994 17.2947C6.32507 16.9367 5.94331 16.4312 5.737 15.8477H17.657C18.8293 15.8477 19.9643 15.4359 20.8638 14.6841C21.7633 13.9323 22.37 12.8884 22.578 11.7347L23.363 7.38066C23.4414 6.94866 23.4237 6.50472 23.3114 6.08029C23.1991 5.65586 22.9948 5.26133 22.713 4.92466ZM21.4 7.02566L20.614 11.3797C20.4891 12.0727 20.1245 12.6996 19.5839 13.1509C19.0433 13.6021 18.3612 13.8487 17.657 13.8477H5.419L4.478 5.84766H20.41C20.5569 5.84678 20.7022 5.87828 20.8355 5.93991C20.9689 6.00155 21.087 6.0918 21.1815 6.20426C21.276 6.31672 21.3446 6.44863 21.3824 6.59059C21.4201 6.73256 21.4262 6.8811 21.4 7.02566Z" fill="#8090A3"/>
<path d="M7 24.8477C8.10457 24.8477 9 23.9522 9 22.8477C9 21.7431 8.10457 20.8477 7 20.8477C5.89543 20.8477 5 21.7431 5 22.8477C5 23.9522 5.89543 24.8477 7 24.8477Z" fill="#8090A3"/>
<path d="M17 24.8477C18.1046 24.8477 19 23.9522 19 22.8477C19 21.7431 18.1046 20.8477 17 20.8477C15.8954 20.8477 15 21.7431 15 22.8477C15 23.9522 15.8954 24.8477 17 24.8477Z" fill="#8090A3"/>
</g>
<defs>
<clipPath id="clip0_799_57552">
<rect width="24" height="24" fill="white" transform="translate(0 0.847656)"/>
</clipPath>
</defs>
</svg>
