<svg width="24" height="25" viewBox="0 0 24 25" fill="none" xmlns="http://www.w3.org/2000/svg">
<path d="M21.1304 11.9346H2.86955C2.38931 11.9346 2 12.3239 2 12.8041C2 13.2844 2.38931 13.6737 2.86955 13.6737H21.1304C21.6107 13.6737 22 13.2844 22 12.8041C22 12.3239 21.6107 11.9346 21.1304 11.9346Z" fill="#8090A3"/>
<path d="M2.86955 7.58676H21.1304C21.6107 7.58676 22 7.19745 22 6.71721C22 6.23696 21.6107 5.84766 21.1304 5.84766H2.86955C2.38931 5.84766 2 6.23696 2 6.71721C2 7.19745 2.38931 7.58676 2.86955 7.58676Z" fill="#8090A3"/>
<path d="M21.1304 18.0215H2.86955C2.38931 18.0215 2 18.4108 2 18.8911C2 19.3713 2.38931 19.7606 2.86955 19.7606H21.1304C21.6107 19.7606 22 19.3713 22 18.8911C22 18.4108 21.6107 18.0215 21.1304 18.0215Z" fill="#8090A3"/>
</svg>
