<svg width="24" height="25" viewBox="0 0 24 25" fill="none" xmlns="http://www.w3.org/2000/svg">
<path d="M7.83333 2.84766H5.33333C4.44928 2.84766 3.60143 3.19885 2.97631 3.82397C2.35119 4.44909 2 5.29693 2 6.18099V8.68099C2 9.56504 2.35119 10.4129 2.97631 11.038C3.60143 11.6631 4.44928 12.0143 5.33333 12.0143H7.83333C8.71739 12.0143 9.56523 11.6631 10.1904 11.038C10.8155 10.4129 11.1667 9.56504 11.1667 8.68099V6.18099C11.1667 5.29693 10.8155 4.44909 10.1904 3.82397C9.56523 3.19885 8.71739 2.84766 7.83333 2.84766ZM9.5 8.68099C9.5 9.12302 9.3244 9.54694 9.01184 9.8595C8.69928 10.1721 8.27536 10.3477 7.83333 10.3477H5.33333C4.89131 10.3477 4.46738 10.1721 4.15482 9.8595C3.84226 9.54694 3.66667 9.12302 3.66667 8.68099V6.18099C3.66667 5.73896 3.84226 5.31504 4.15482 5.00248C4.46738 4.68992 4.89131 4.51432 5.33333 4.51432H7.83333C8.27536 4.51432 8.69928 4.68992 9.01184 5.00248C9.3244 5.31504 9.5 5.73896 9.5 6.18099V8.68099Z" fill="#8090A3"/>
<path d="M18.6667 2.84766H16.1667C15.2826 2.84766 14.4348 3.19885 13.8096 3.82397C13.1845 4.44909 12.8333 5.29693 12.8333 6.18099V8.68099C12.8333 9.56504 13.1845 10.4129 13.8096 11.038C14.4348 11.6631 15.2826 12.0143 16.1667 12.0143H18.6667C19.5507 12.0143 20.3986 11.6631 21.0237 11.038C21.6488 10.4129 22 9.56504 22 8.68099V6.18099C22 5.29693 21.6488 4.44909 21.0237 3.82397C20.3986 3.19885 19.5507 2.84766 18.6667 2.84766ZM20.3333 8.68099C20.3333 9.12302 20.1577 9.54694 19.8452 9.8595C19.5326 10.1721 19.1087 10.3477 18.6667 10.3477H16.1667C15.7246 10.3477 15.3007 10.1721 14.9882 9.8595C14.6756 9.54694 14.5 9.12302 14.5 8.68099V6.18099C14.5 5.73896 14.6756 5.31504 14.9882 5.00248C15.3007 4.68992 15.7246 4.51432 16.1667 4.51432H18.6667C19.1087 4.51432 19.5326 4.68992 19.8452 5.00248C20.1577 5.31504 20.3333 5.73896 20.3333 6.18099V8.68099Z" fill="#8090A3"/>
<path d="M7.83333 13.681H5.33333C4.44928 13.681 3.60143 14.0322 2.97631 14.6573C2.35119 15.2824 2 16.1303 2 17.0143V19.5143C2 20.3984 2.35119 21.2462 2.97631 21.8713C3.60143 22.4965 4.44928 22.8477 5.33333 22.8477H7.83333C8.71739 22.8477 9.56523 22.4965 10.1904 21.8713C10.8155 21.2462 11.1667 20.3984 11.1667 19.5143V17.0143C11.1667 16.1303 10.8155 15.2824 10.1904 14.6573C9.56523 14.0322 8.71739 13.681 7.83333 13.681ZM9.5 19.5143C9.5 19.9564 9.3244 20.3803 9.01184 20.6928C8.69928 21.0054 8.27536 21.181 7.83333 21.181H5.33333C4.89131 21.181 4.46738 21.0054 4.15482 20.6928C3.84226 20.3803 3.66667 19.9564 3.66667 19.5143V17.0143C3.66667 16.5723 3.84226 16.1484 4.15482 15.8358C4.46738 15.5233 4.89131 15.3477 5.33333 15.3477H7.83333C8.27536 15.3477 8.69928 15.5233 9.01184 15.8358C9.3244 16.1484 9.5 16.5723 9.5 17.0143V19.5143Z" fill="#8090A3"/>
<path d="M18.6667 13.681H16.1667C15.2826 13.681 14.4348 14.0322 13.8096 14.6573C13.1845 15.2824 12.8333 16.1303 12.8333 17.0143V19.5143C12.8333 20.3984 13.1845 21.2462 13.8096 21.8713C14.4348 22.4965 15.2826 22.8477 16.1667 22.8477H18.6667C19.5507 22.8477 20.3986 22.4965 21.0237 21.8713C21.6488 21.2462 22 20.3984 22 19.5143V17.0143C22 16.1303 21.6488 15.2824 21.0237 14.6573C20.3986 14.0322 19.5507 13.681 18.6667 13.681ZM20.3333 19.5143C20.3333 19.9564 20.1577 20.3803 19.8452 20.6928C19.5326 21.0054 19.1087 21.181 18.6667 21.181H16.1667C15.7246 21.181 15.3007 21.0054 14.9882 20.6928C14.6756 20.3803 14.5 19.9564 14.5 19.5143V17.0143C14.5 16.5723 14.6756 16.1484 14.9882 15.8358C15.3007 15.5233 15.7246 15.3477 16.1667 15.3477H18.6667C19.1087 15.3477 19.5326 15.5233 19.8452 15.8358C20.1577 16.1484 20.3333 16.5723 20.3333 17.0143V19.5143Z" fill="#8090A3"/>
</svg>
