<svg width="24" height="25" viewBox="0 0 24 25" fill="none" xmlns="http://www.w3.org/2000/svg">
<path d="M21.2675 10.3919L14.9467 4.06641C14.1644 3.28593 13.1047 2.84766 12 2.84766C10.8953 2.84766 9.83564 3.28593 9.05334 4.06641L2.73251 10.3919C2.49953 10.6235 2.31482 10.8991 2.18908 11.2027C2.06334 11.5063 1.99907 11.8318 2.00001 12.1604V20.3462C2.00001 21.0096 2.2634 21.6459 2.73224 22.115C3.20108 22.5841 3.83697 22.8477 4.50001 22.8477H19.5C20.1631 22.8477 20.7989 22.5841 21.2678 22.115C21.7366 21.6459 22 21.0096 22 20.3462V12.1604C22.0009 11.8318 21.9367 11.5063 21.8109 11.2027C21.6852 10.8991 21.5005 10.6235 21.2675 10.3919ZM14.5 21.18H9.50001V17.8997C9.50001 17.2363 9.7634 16.6 10.2322 16.1309C10.7011 15.6617 11.337 15.3982 12 15.3982C12.6631 15.3982 13.2989 15.6617 13.7678 16.1309C14.2366 16.6 14.5 17.2363 14.5 17.8997V21.18ZM20.3333 20.3462C20.3333 20.5673 20.2455 20.7794 20.0893 20.9358C19.933 21.0921 19.721 21.18 19.5 21.18H16.1667V17.8997C16.1667 16.794 15.7277 15.7335 14.9463 14.9516C14.1649 14.1698 13.1051 13.7305 12 13.7305C10.8949 13.7305 9.83513 14.1698 9.05373 14.9516C8.27233 15.7335 7.83334 16.794 7.83334 17.8997V21.18H4.50001C4.279 21.18 4.06703 21.0921 3.91075 20.9358C3.75447 20.7794 3.66668 20.5673 3.66668 20.3462V12.1604C3.66745 11.9394 3.75517 11.7277 3.91084 11.5709L10.2317 5.24795C10.7014 4.78011 11.3372 4.51746 12 4.51746C12.6628 4.51746 13.2986 4.78011 13.7683 5.24795L20.0892 11.5734C20.2442 11.7295 20.3319 11.9403 20.3333 12.1604V20.3462Z" fill="#382A81"/>
</svg>
