<svg width="24" height="25" viewBox="0 0 24 25" fill="none" xmlns="http://www.w3.org/2000/svg">
<path fill-rule="evenodd" clip-rule="evenodd" d="M16.5532 2.84767C15.1056 2.84766 14.1724 3.02012 13.1027 3.54373C12.7066 3.73759 12.335 3.97105 11.99 4.24342C11.6582 3.98632 11.3015 3.76357 10.9218 3.57579C9.83132 3.03643 8.85028 2.84766 7.45455 2.84766C3.71644 2.84766 1 5.94492 1 9.96753C1 13.0054 2.69383 15.9399 5.84884 18.7775C7.50489 20.267 9.61932 21.741 11.1336 22.5251L12 22.9738L12.8664 22.5251C14.3807 21.741 16.4951 20.267 18.1512 18.7775C21.3062 15.9399 23 13.0054 23 9.96753C23 5.9875 20.2579 2.86301 16.5532 2.84767ZM21 9.96753C21 12.3476 19.5862 14.797 16.8137 17.2905C15.3022 18.65 13.359 20.0086 12 20.7214C10.641 20.0086 8.69782 18.65 7.18628 17.2905C4.41382 14.797 3 12.3476 3 9.96753C3 6.99537 4.88364 4.84766 7.45455 4.84766C8.56428 4.84766 9.24813 4.97924 10.0351 5.3685C10.5 5.59843 10.9109 5.90203 11.2665 6.28143L12.0023 7.06636L12.7315 6.27521C13.0951 5.88061 13.512 5.57009 13.9819 5.34008C14.7459 4.96615 15.387 4.84766 16.5491 4.84766C19.0882 4.85819 21 7.03662 21 9.96753Z" fill="#8090A3"/>
</svg>
