<svg width="24" height="25" viewBox="0 0 24 25" fill="none" xmlns="http://www.w3.org/2000/svg">
<path fill-rule="evenodd" clip-rule="evenodd" d="M12 0.847656C5.376 0.847656 0 6.22366 0 12.8477C0 19.4717 5.376 24.8477 12 24.8477C18.624 24.8477 24 19.4717 24 12.8477C24 6.22366 18.624 0.847656 12 0.847656ZM11.9984 4.44775C13.9904 4.44775 15.5984 6.05575 15.5984 8.04775C15.5984 10.0398 13.9904 11.6478 11.9984 11.6478C10.0064 11.6478 8.39844 10.0398 8.39844 8.04775C8.39844 6.05575 10.0064 4.44775 11.9984 4.44775ZM12.0008 21.4877C9.00078 21.4877 6.34878 19.9517 4.80078 17.6237C4.83678 15.2357 9.60078 13.9277 12.0008 13.9277C14.3888 13.9277 19.1648 15.2357 19.2008 17.6237C17.6528 19.9517 15.0008 21.4877 12.0008 21.4877Z" fill="#8090A3"/>
</svg>
