<svg width="24" height="25" viewBox="0 0 24 25" fill="none" xmlns="http://www.w3.org/2000/svg">
<path d="M21.7663 21.4366L16.7962 16.4665C18.1506 14.81 18.8165 12.6963 18.6562 10.5626C18.4959 8.42894 17.5216 6.43849 15.9349 5.00299C14.3482 3.5675 12.2704 2.79678 10.1314 2.85026C7.99233 2.90375 5.95568 3.77734 4.44268 5.29033C2.92968 6.80333 2.05609 8.83998 2.00261 10.979C1.94913 13.1181 2.71984 15.1958 4.15534 16.7825C5.59083 18.3693 7.58128 19.3435 9.71497 19.5038C11.8487 19.6642 13.9623 18.9982 15.6188 17.6438L20.5889 22.6139C20.7459 22.7656 20.9563 22.8495 21.1746 22.8476C21.3929 22.8457 21.6017 22.7582 21.7561 22.6038C21.9105 22.4494 21.9981 22.2406 22 22.0222C22.0019 21.8039 21.9179 21.5936 21.7663 21.4366ZM10.3531 17.862C9.03568 17.862 7.74781 17.4713 6.65238 16.7394C5.55695 16.0074 4.70317 14.9671 4.199 13.7499C3.69483 12.5328 3.56292 11.1934 3.81994 9.90127C4.07697 8.60912 4.71138 7.42221 5.64297 6.49062C6.57455 5.55904 7.76146 4.92462 9.05361 4.6676C10.3458 4.41058 11.6851 4.54249 12.9023 5.04666C14.1194 5.55083 15.1598 6.40461 15.8917 7.50004C16.6237 8.59547 17.0143 9.88334 17.0143 11.2008C17.0124 12.9668 16.3099 14.66 15.0611 15.9088C13.8123 17.1576 12.1192 17.86 10.3531 17.862Z" fill="#8090A3"/>
</svg>
