<svg width="36" height="37" viewBox="0 0 36 37" fill="none" xmlns="http://www.w3.org/2000/svg">
<path d="M18 36.3477C8.33502 36.3477 0.5 28.5126 0.5 18.8477C0.5 9.18267 8.33502 1.34766 18 1.34766C27.665 1.34766 35.5 9.18267 35.5 18.8477C35.5 28.5126 27.665 36.3477 18 36.3477Z" stroke="#4AC959"/>
<path fill-rule="evenodd" clip-rule="evenodd" d="M24.3 12.4352C22.6125 10.7477 20.3625 9.84766 18 9.84766C13.05 9.84766 9 13.8977 9 18.8477C9 20.4227 9.45001 21.9977 10.2375 23.3477L9 27.8477L13.725 26.6102C15.075 27.2852 16.5375 27.7352 18 27.7352C22.95 27.7352 27 23.6852 27 18.7352C27 16.3727 25.9875 14.1227 24.3 12.4352ZM18 26.2727C16.65 26.2727 15.3 25.9352 14.175 25.2602L13.95 25.1477L11.1375 25.9352L11.925 23.2352L11.7 22.8977C10.9125 21.6602 10.575 20.3102 10.575 18.9602C10.575 14.9102 13.95 11.5352 18 11.5352C20.025 11.5352 21.825 12.3227 23.2875 13.6727C24.75 15.1352 25.425 16.9352 25.425 18.9602C25.425 22.8977 22.1625 26.2727 18 26.2727ZM22.05 20.6477C21.825 20.5352 20.7 19.9727 20.475 19.9727C20.25 19.8602 20.1375 19.8602 20.025 20.0852C19.9125 20.3102 19.4625 20.7602 19.35 20.9852C19.2375 21.0977 19.125 21.0977 18.9 21.0977C18.675 20.9852 18 20.7602 17.1 19.9727C16.425 19.4102 15.975 18.6227 15.8625 18.3977C15.75 18.1727 15.8625 18.0602 15.975 17.9477C16.0875 17.8352 16.2 17.7227 16.3125 17.6102C16.425 17.4977 16.425 17.3852 16.5375 17.2727C16.65 17.1602 16.5375 17.0477 16.5375 16.9352C16.5375 16.8227 16.0875 15.6977 15.8625 15.2477C15.75 14.9102 15.525 14.9102 15.4125 14.9102C15.3 14.9102 15.1875 14.9102 14.9625 14.9102C14.85 14.9102 14.625 14.9102 14.4 15.1352C14.175 15.3602 13.6125 15.9227 13.6125 17.0477C13.6125 18.1727 14.4 19.1852 14.5125 19.4102C14.625 19.5227 16.0875 21.8852 18.3375 22.7852C20.25 23.5727 20.5875 23.3477 21.0375 23.3477C21.4875 23.3477 22.3875 22.7852 22.5 22.3352C22.725 21.7727 22.725 21.3227 22.6125 21.3227C22.5 20.7602 22.275 20.7602 22.05 20.6477Z" fill="#4AC959"/>
</svg>
